<?xml version="1.0" encoding="UTF-8" standalone="no"?><!DOCTYPE svg PUBLIC "-//W3C//DTD SVG 1.1//EN" "http://www.w3.org/Graphics/SVG/1.1/DTD/svg11.dtd">
<svg xmlns="http://www.w3.org/2000/svg" version="1.1" viewBox="0 0 103.7744 109.1352">	<defs>
		<filter id="filter4347" color-interpolation-filters="sRGB">
			<feGaussianBlur stdDeviation="4" result="result8"/>
			<feOffset result="result11" dx="4" dy="4"/>
			<feComposite operator="in" in="SourceGraphic" in2="result11" result="result6"/>
			<feFlood flood-color="rgb(0,0,0)" in="result6" flood-opacity="1" result="result10"/>
			<feBlend result="result12" in="result6" in2="result10" mode="normal"/>
			<feComposite operator="in" in2="SourceGraphic" result="result2"/>
		</filter>
		<filter id="filter4361" color-interpolation-filters="sRGB">
			<feGaussianBlur stdDeviation="4" result="result8"/>
			<feOffset result="result11" dx="4" dy="4"/>
			<feComposite operator="in" in="SourceGraphic" in2="result11" result="result6"/>
			<feFlood flood-color="rgb(0,0,0)" in="result6" flood-opacity="1" result="result10"/>
			<feBlend result="result12" in="result6" in2="result10" mode="normal"/>
			<feComposite operator="in" in2="SourceGraphic" result="result2"/>
		</filter>
		<filter id="filter4375" color-interpolation-filters="sRGB">
			<feGaussianBlur stdDeviation="4" result="result8"/>
			<feOffset result="result11" dx="4" dy="4"/>
			<feComposite operator="in" in="SourceGraphic" in2="result11" result="result6"/>
			<feFlood flood-color="rgb(0,0,0)" in="result6" flood-opacity="1" result="result10"/>
			<feBlend result="result12" in="result6" in2="result10" mode="normal"/>
			<feComposite operator="in" in2="SourceGraphic" result="result2"/>
		</filter>
		<filter id="filter4389" color-interpolation-filters="sRGB">
			<feGaussianBlur stdDeviation="4" result="result8"/>
			<feOffset result="result11" dx="4" dy="4"/>
			<feComposite operator="in" in="SourceGraphic" in2="result11" result="result6"/>
			<feFlood flood-color="rgb(0,0,0)" in="result6" flood-opacity="1" result="result10"/>
			<feBlend result="result12" in="result6" in2="result10" mode="normal"/>
			<feComposite operator="in" in2="SourceGraphic" result="result2"/>
		</filter>
		<filter id="filter4403" color-interpolation-filters="sRGB">
			<feGaussianBlur stdDeviation="4" result="result8"/>
			<feOffset result="result11" dx="4" dy="4"/>
			<feComposite operator="in" in="SourceGraphic" in2="result11" result="result6"/>
			<feFlood flood-color="rgb(0,0,0)" in="result6" flood-opacity="1" result="result10"/>
			<feBlend result="result12" in="result6" in2="result10" mode="normal"/>
			<feComposite operator="in" in2="SourceGraphic" result="result2"/>
		</filter>
		<filter id="filter4417" color-interpolation-filters="sRGB">
			<feGaussianBlur stdDeviation="4" result="result8"/>
			<feOffset result="result11" dx="4" dy="4"/>
			<feComposite operator="in" in="SourceGraphic" in2="result11" result="result6"/>
			<feFlood flood-color="rgb(0,0,0)" in="result6" flood-opacity="1" result="result10"/>
			<feBlend result="result12" in="result6" in2="result10" mode="normal"/>
			<feComposite operator="in" in2="SourceGraphic" result="result2"/>
		</filter>
	</defs>
	<g transform="translate(1.6582,1.8465991)" display="none">
		<path d="m49.3,72.9c2.6-0.005,5.09-0.434,7.43-1.21-0.549-0.502-1.07-1.04-1.55-1.64-3.17-4.04-4.94-9.96-7.73-19.9-0.443,0.96-0.932,2.04-1.44,3.19-1.79,4.06-3.77,8.99-4.5,12.2-0.26,1.13-0.421,2.52-0.418,4.07,0,0.612,0.034,1.26,0.085,1.91,2.53,0.932,5.26,1.44,8.12,1.45z" display="inline" fill="#91dc47"/>		<path d="m25.4,19.8c5.18,0.015,9.25,1.62,11.2,2.72,0.472,0.272,0.919,0.565,1.36,0.866,3.49-1.54,7.34-2.4,11.4-2.4,15.6,0.002,28.3,12.7,28.3,28.3h-0.002c0,7.89-3.22,15-8.42,20.1,1.28,0.143,2.64,0.231,4.03,0.225,4.94,0.002,10.3-1.09,14.3-4.45,2.61-2.2,4.79-5.41,6-10.2,0.237-1.86,0.373-3.76,0.373-5.68,0-24.6-20-44.6-44.6-44.6-14.9,0-28.1,7.35-36.2,18.6,4.21-2.63,8.5-3.58,12.3-3.55z" display="inline" fill="#5881d8"/>		<path d="m73.6,76.6c-1.35,0-2.61-0.072-3.78-0.215-3.12-0.392-5.7-0.863-7.95-1.66-3.79,1.88-8.06,2.94-12.6,2.94-15.6,0-28.3-12.7-28.3-28.3,0.001-8.49,3.74-16.1,9.65-21.3-1.58-0.381-3.23-0.605-4.92-0.602-8.31,0.079-17.1,4.68-20.7,17.1-0.168,1.58-0.26,3.17-0.26,4.79,0,24.6,20,44.6,44.6,44.6,15.1,0,28.4-7.49,36.5-18.9-4.36,1.09-8.56,1.61-12.1,1.62z" display="inline" fill="#63b132"/>		<path d="m44.9,42.9c-1.5-3.78-3.68-8.17-5.62-10.2-0.988-1.04-2.19-1.94-3.52-2.7-6.05,4.26-10,11.3-10,19.3,0.015,7.85,3.85,14.8,9.75,19.1,1.45-6.02,5.07-11.5,10.5-22.6-0.322-0.887-0.69-1.86-1.1-2.88z" display="inline" fill="#91dc47"/>		<path d="m61.5,67.7c0.274,0.137,0.898,0.359,1.77,0.605,5.84-4.29,9.64-11.2,9.65-19h-0.002c-0.022-13-10.6-23.5-23.6-23.6-2.59,0.005-5.07,0.431-7.4,1.2,4.78,5.45,7.09,13.2,9.31,21.8,0.001,0.003,0.003,0.006,0.004,0.01,0.004,0.006,0.712,2.37,1.93,5.5,1.21,3.13,2.93,7,4.8,9.82,1.23,1.89,2.58,3.25,3.51,3.65z" display="inline" fill="#90b4fe"/>		<path d="m93.5,55c-1.21,4.82-3.4,8.04-6,10.2-4,3.36-9.34,4.45-14.3,4.45-1.39,0.007-2.75-0.082-4.03-0.225,5.2-5.13,8.42-12.3,8.42-20.1h0.002c-0.002-15.6-12.7-28.3-28.3-28.3-4.06,0-7.91,0.859-11.4,2.4-0.439-0.301-0.887-0.594-1.36-0.866-1.95-1.1-6.03-2.7-11.2-2.72-3.75-0.034-8.05,0.92-12.3,3.55-4.37,6.09-7.25,13.3-8.09,21.2,3.65-12.4,12.4-17,20.7-17.1,1.68-0.003,3.34,0.22,4.92,0.602-5.92,5.19-9.65,12.8-9.65,21.3,0.002,15.6,12.7,28.3,28.3,28.3,4.52,0,8.79-1.06,12.6-2.94,2.25,0.795,4.83,1.27,7.95,1.66,1.17,0.143,2.43,0.215,3.78,0.215,3.59-0.011,7.79-0.531,12.1-1.62,4.08-5.79,6.8-12.6,7.74-19.9zm-67.8-5.68c0.015-7.97,3.97-15,10-19.3,1.33,0.766,2.53,1.66,3.52,2.7,1.94,1.99,4.11,6.38,5.62,10.2,0.412,1.02,0.78,1.99,1.1,2.88-5.44,11.1-9.06,16.6-10.5,22.6-5.9-4.28-9.74-11.2-9.75-19.1zm23.6,23.6c-2.85-0.005-5.59-0.516-8.12-1.45-0.052-0.655-0.085-1.3-0.085-1.91-0.002-1.55,0.159-2.94,0.418-4.07,0.724-3.16,2.71-8.1,4.5-12.2,0.506-1.15,0.995-2.23,1.44-3.19,2.8,9.95,4.56,15.9,7.73,19.9,0.477,0.603,1,1.14,1.55,1.64-2.34,0.777-4.83,1.2-7.43,1.21zm13.9-4.57c-0.868-0.246-1.49-0.469-1.77-0.605-0.922-0.399-2.28-1.76-3.51-3.65-1.88-2.82-3.6-6.69-4.8-9.82-1.22-3.13-1.92-5.49-1.93-5.5-0.001-0.003-0.003-0.006-0.004-0.01-2.23-8.53-4.53-16.3-9.31-21.8,2.33-0.771,4.81-1.2,7.4-1.2,13,0.025,23.5,10.6,23.6,23.6h0.002c-0.014,7.8-3.81,14.7-9.65,19z" display="inline" fill="#FFF"/>	</g>	<g transform="translate(2.5707006,5.2480997)">		<path filter="url(#filter4347)" fill="none" d="M49.3,98.6c-27.2,0-49.3-22.1-49.3-49.3s22.1-49.3,49.3-49.3,49.3,22.1,49.3,49.3-22.1,49.3-49.3,49.3z"/>		<path filter="url(#filter4361)" fill="#91dc47" d="m40.2,72.2c5.67,2.28,12.2,2.27,17.9,0.115,0.934-0.0814,0.16-0.524-0.209-0.881-3.7-3.13-5.3-7.92-6.79-12.4-1.24-3.9-2.32-7.84-3.43-11.8-2.64,5.76-5.37,11.5-7.06,17.6-0.596,2.37-0.618,4.84-0.389,7.26z"/>		<path filter="url(#filter4375)" fill="#5082dc" d="m25.2,20.8c4.44,0.0141,9.02,1.08,12.7,3.73,11.1-5.39,25.5-1.91,33,7.93,8.06,9.86,7.69,25.4-0.882,34.8-0.308,1.07-4.61,3.34-1.52,3.13,8.33,1.17,18.3-0.548,23.1-8.15,2.26-4.02,2.21-8.96,2.37-13.5,0.006-17.1-11-33.6-26.7-40.3-15.8-7.1-35.5-3.81-48.1,8.14-2.5,2.22-6.73,7.19-7.01,8.66,3.76-2.8,8.4-4.46,13.1-4.45z"/>		<path filter="url(#filter4389)" fill="#64b432" d="m73.6,75.6c-3.99-0.068-8.01-0.66-11.8-1.96-11.2,6.06-26.3,2.73-34-7.43-8.07-9.86-7.66-25.4,0.893-34.8,0.187-1.4,5.6-3.72,2.91-4.14-9.3-2.78-20,1.62-24.6,10.2-2.4,4.05-2.16,9.05-2.22,13.6,0.436,17.3,12,33.6,28.2,39.8,16,6.49,35.5,2.54,47.6-9.77,1.65-1.84,6.34-6.4,5.15-7.12-3.97,1.01-8.05,1.63-12.1,1.66z"/>		<path filter="url(#filter4403)" fill="#8cb4fa" d="m61.1,68.6c1.69,1.26,3.25,0.622,4.46-0.874,7.49-6.44,10.4-17.6,6.85-26.9-3.41-9.64-13.3-16.5-23.6-16.1-2.97,0.027-5.87,0.729-8.65,1.72,5.97,6.23,8.02,14.9,10.2,23,2.05,6,4.24,12.2,8.24,17.2,0.698,0.781,1.46,1.55,2.43,1.99z"/>		<path filter="url(#filter4417)" fill="#96dc46" d="m46.9,46.2c0.351-1.48-1.1-3.06-1.42-4.55-1.99-4.56-4.15-9.58-8.67-12.2-1.1-1.32-2.13,0.17-3.1,0.855-7.55,6.08-10.9,16.9-7.88,26.1,1.67,5.58,5.45,10.4,10.3,13.6,1.46-7,5.44-13.1,8.55-19.4,0.755-1.48,1.5-2.96,2.23-4.45z"/>		<path fill="#FFF" d="M49.3-0.5c-21.9-0.418-42.8,15.7-48.1,36.9-5.27,19.1,2.12,40.9,18.1,52.7,16,11.9,39.6,13.9,56.6,2.4,16-10.1,25.1-29.6,22.9-48.4-2.4-20-18-37.7-37.7-42.2-3.9-0.935-7.8-1.41-11.8-1.41zm0,5.75c20.9-0.42,40.6,16.2,43.5,36.8,1.4,8.1,1,18.2-6.4,23.3-4.6,3.4-10.7,4.3-16.2,3.6,10.7-10.4,10.4-29.6-0.3-39.9-8-8.3-21.4-10.9-31.9-6.2-6.8-4.3-15.8-4.7-23-1.1,8.2-10.3,21.1-16.7,34.3-16.6zm1.38,21c11.7,0.7,22,11.1,21.7,22.9,0,7.2-3.4,14.4-9.3,18.7-5.4-2-6.9-8.3-9.2-13-3.7-9.1-4.7-19.7-11.1-27.5,2.55-0.822,5.26-1.19,7.94-1zm-24.9,1.7c3.95-0.499,4.23,0.835,1.55,2.78-9.66,10.9-8.84,29.2,1.81,39.2,8.39,8.38,22.2,10.7,32.8,5.31,7.29,2.39,15.2,2.16,22.6,0.438-10.9,15-31.6,21.7-49,15.6-15.7-5.1-28-19.4-29.9-35.8-1.24-7.2-0.27-15.3,5.14-20.7,3.8-4.2,9.3-6.9,15-6.8zm10.2,3.09c4.97,2.07,6.8,8.31,8.85,12.9,1.28,4.58-3.66,8.76-5.11,13.1-2.21,2.66-2.91,9.54-5.2,9.78-9.52-7.7-11-23.3-2.72-32.5,1.11-1.39,2.31-3.07,4.18-3.39zm11.5,20.5c2.06,6.88,3.51,14.4,8.5,19.9-4.4,1-13.6,3-14.4-2.9,0.5-6,3.5-11.5,5.8-17z"/>	</g></svg>