<?xml version="1.0" encoding="utf-8"?>
<!-- Generator: Adobe Illustrator 18.1.1, SVG Export Plug-In . SVG Version: 6.00 Build 0)  -->
<svg version="1.2" baseProfile="tiny" id="Layer_1" xmlns="http://www.w3.org/2000/svg" xmlns:xlink="http://www.w3.org/1999/xlink"
     x="0px" y="0px" viewBox="0 0 178 178" xml:space="preserve">
  <g>
    <path fill="#4383D0" d="M67.2,120.8c0-1.3,0-2.6,0.1-3.9c0.9-11.8,8.8-21.8,15.7-31.1c-3-11.4-6.1-22.4-17.2-28.9
                c-0.3-0.2-0.6-0.4-1-0.5C55.4,63.6,49.3,75,49.3,87.8C49.3,101.6,56.4,113.7,67.2,120.8z"/>
    <path fill="#4383D0" d="M129.8,132.7c-8-0.2-14.1-1.4-19.3-3.5c-6.5,3.4-13.8,5.3-21.6,5.3c-25.8,0-46.7-21-46.7-46.7
                c0-13.6,5.8-25.9,15.1-34.4c-7.9-2.1-16.4-1.4-23.7,2.5C12.9,67,14.2,97.6,21.9,115.2c9.2,20.9,27.4,37.3,49.9,42.8
                c28.7,7.1,58.9-3.7,76-27.7C140.8,132.2,135.1,132.8,129.8,132.7z"/>
    <path fill="#4383D0" d="M88.9,48.2c-4.1,0-8.1,0.6-11.8,1.8c7.7,7.9,11.5,18.8,14.5,29.3c3.4,12.1,5.4,25.6,15.6,34.1
                c2.2,1.9,4.6,3.4,7.2,4.6c8.6-7.3,14.1-18.1,14.1-30.3C128.5,65.9,110.7,48.2,88.9,48.2z"/>
    <path fill="#4383D0" d="M135.1,31.5c-18-14.9-42.7-20.1-65.2-14c-13.8,3.8-26.3,11.6-35.7,22.3c12.4-2.6,25.8-1.9,36.4,4.9
                c5.6-2.4,11.8-3.7,18.2-3.7c25.8,0,46.7,21,46.7,46.7c0,12.8-5.2,24.4-13.5,32.8c6.2,1.2,12.7,0.7,18.6-1.6
                c11.7-4.6,20.5-16.2,20.9-28.9C163,67.9,152,45.4,135.1,31.5z"/>
    <path fill="#4383D0" d="M102.7,124.9c-1.2-0.9-2.4-1.9-3.6-2.9c-7.6-6.9-10.9-17.2-13.7-27.2c-4.8,8-9.1,16.3-8.6,26
                c0.1,1.7,0.3,3.3,0.7,4.9c3.6,1.1,7.4,1.7,11.3,1.7C93.7,127.3,98.4,126.5,102.7,124.9z"/>
  </g>
</svg>

