<?xml version="1.0"?>
<svg version="1.1" xmlns="http://www.w3.org/2000/svg" xmlns:xlink="http://www.w3.org/1999/xlink" width="61" height="42">
    <desc iVinci="yes" version="4.5" gridStep="20" showGrid="no" snapToGrid="no" codePlatform="0"/>
    <g id="Layer1" opacity="1">
        <g id="Shape1">
            <desc shapeID="1" type="0" basicInfo-basicType="0" basicInfo-roundedRectRadius="12" basicInfo-polygonSides="6" basicInfo-starPoints="5" bounding="rect(-9.22508,-12.259,18.4502,24.5179)" text="" font-familyName="" font-pixelSize="20" font-bold="0" font-underline="0" font-alignment="1" strokeStyle="0" markerStart="0" markerEnd="0" shadowEnabled="0" shadowOffsetX="0" shadowOffsetY="2" shadowBlur="4" shadowOpacity="160" blurEnabled="0" blurRadius="4" transform="matrix(1,0,0,1,32.0066,29.7411)" pers-center="0,0" pers-size="0,0" pers-start="0,0" pers-end="0,0" locked="0" mesh="" flag=""/>
            <path id="shapePath1" d="M41,42 C41.934,41.9186 39.7662,41.181 39.3972,40.824 C35.6972,37.694 35.1617,33.7621 33.6717,29.2821 C32.4317,25.3821 31.3517,21.4421 30.2417,17.4821 C27.6017,23.2421 24.8717,28.9821 23.1817,35.0821 C22.5857,37.4521 22.771,39.58 23,42 C23,42 35.3484,41.779 41,42 Z" style="stroke:none;fill-rule:evenodd;fill:url(#radialGradientFill1);fill-opacity:1;"/><defs><radialGradient id="radialGradientFill1" gradientUnits="userSpaceOnUse" cx="30.1429" cy="21" r="67.5422" fx="31.7375" fy="20.1217"><stop offset="0" stop-color="#000000" stop-opacity="0.0627451"/><stop offset="0.500796" stop-color="#ffffff" stop-opacity="0.0627451"/></radialGradient></defs>
        </g>
        <g id="Shape2">
            <desc shapeID="2" type="0" basicInfo-basicType="0" basicInfo-roundedRectRadius="12" basicInfo-polygonSides="6" basicInfo-starPoints="5" bounding="rect(-16.6237,-21,33.2473,42)" text="" font-familyName="" font-pixelSize="20" font-bold="0" font-underline="0" font-alignment="1" strokeStyle="0" markerStart="0" markerEnd="0" shadowEnabled="0" shadowOffsetX="0" shadowOffsetY="2" shadowBlur="4" shadowOpacity="160" blurEnabled="0" blurRadius="4" transform="matrix(1,0,0,1,43.662,21)" pers-center="0,0" pers-size="0,0" pers-start="0,0" pers-end="0,0" locked="0" mesh="" flag=""/>
            <path id="shapePath2" d="M60,42 L60.2857,0 C60.2857,0 29.8201,0 27.0384,0 C33.0084,6.23 30.7507,11.5941 32.9307,19.6941 C34.9807,25.6941 37.1707,31.8941 41.1707,36.8941 C41.8687,37.6751 45.03,41.56 46,42 C48.2173,42 60,42 60,42 Z" style="stroke:none;fill-rule:evenodd;fill:url(#radialGradientFill2);fill-opacity:1;"/><defs><radialGradient id="radialGradientFill2" gradientUnits="userSpaceOnUse" cx="30.1429" cy="21" r="67.5422" fx="31.7375" fy="20.1217"><stop offset="0" stop-color="#000000" stop-opacity="0.0627451"/><stop offset="0.500796" stop-color="#ffffff" stop-opacity="0.0627451"/></radialGradient></defs>
        </g>
        <g id="Shape3">
            <desc shapeID="3" type="0" basicInfo-basicType="0" basicInfo-roundedRectRadius="12" basicInfo-polygonSides="6" basicInfo-starPoints="5" bounding="rect(-14.7661,-21,29.5322,42)" text="" font-familyName="" font-pixelSize="20" font-bold="0" font-underline="0" font-alignment="1" strokeStyle="0" markerStart="0" markerEnd="0" shadowEnabled="0" shadowOffsetX="0" shadowOffsetY="2" shadowBlur="4" shadowOpacity="160" blurEnabled="0" blurRadius="4" transform="matrix(1,0,0,1,14.7661,21)" pers-center="0,0" pers-size="0,0" pers-start="0,0" pers-end="0,0" locked="0" mesh="" flag=""/>
            <path id="shapePath3" d="M28.0507,11.8981 C26.0607,7.3381 24.6047,2.62 20.0847,0 C18.2744,0 0,0 0,0 L0,42 C0,42 11.956,42 18,42 C18.3394,40.3729 19.5156,37.0476 20.0847,35.5039 C21.9639,30.4065 24.8636,25.6887 27.2507,20.8531 C28.0057,19.3731 28.7507,17.8931 29.4807,16.4031 C29.8217,14.9681 28.3707,13.3881 28.0507,11.8981 Z" style="stroke:none;fill-rule:evenodd;fill:url(#radialGradientFill3);fill-opacity:1;"/><defs><radialGradient id="radialGradientFill3" gradientUnits="userSpaceOnUse" cx="30.1429" cy="21" r="67.5422" fx="31.7375" fy="20.1217"><stop offset="0" stop-color="#000000" stop-opacity="0.0627451"/><stop offset="0.500796" stop-color="#ffffff" stop-opacity="0.0627451"/></radialGradient></defs>
        </g>
    </g>
</svg>
